<svg width="50" height="50" viewBox="0 0 50 50" fill="none" xmlns="http://www.w3.org/2000/svg">
<path d="M17.9688 9.375L17.4805 10.0098L15.625 12.5H4.6875V40.625H45.3125V12.5H34.375L32.5195 10.0098L32.0312 9.375H17.9688ZM19.5312 12.5H30.4688L32.3242 14.9902L32.8125 15.625H42.1875V37.5H7.8125V15.625H17.1875L17.6758 14.9902L19.5312 12.5ZM12.5 17.1875C11.6394 17.1875 10.9375 17.8894 10.9375 18.75C10.9375 19.6106 11.6394 20.3125 12.5 20.3125C13.3606 20.3125 14.0625 19.6106 14.0625 18.75C14.0625 17.8894 13.3606 17.1875 12.5 17.1875ZM25 17.1875C19.8425 17.1875 15.625 21.405 15.625 26.5625C15.625 31.72 19.8425 35.9375 25 35.9375C30.1575 35.9375 34.375 31.72 34.375 26.5625C34.375 21.405 30.1575 17.1875 25 17.1875ZM25 20.3125C28.4729 20.3125 31.25 23.0896 31.25 26.5625C31.25 30.0354 28.4729 32.8125 25 32.8125C21.5271 32.8125 18.75 30.0354 18.75 26.5625C18.75 23.0896 21.5271 20.3125 25 20.3125Z" fill="white"/>
</svg>
