<svg width="25" height="26" viewBox="0 0 25 26" fill="none" xmlns="http://www.w3.org/2000/svg">
<path d="M1.5625 4.40625V21.5938H23.4375V4.40625H1.5625ZM3.125 5.96875H21.875V16.833L17.749 12.6826L17.1875 12.1211L13.6475 15.6611L9.15527 11.1201L8.59375 10.5586L3.125 16.0273V5.96875ZM18.75 7.53125C17.8864 7.53125 17.1875 8.2301 17.1875 9.09375C17.1875 9.9574 17.8864 10.6562 18.75 10.6562C19.6136 10.6562 20.3125 9.9574 20.3125 9.09375C20.3125 8.2301 19.6136 7.53125 18.75 7.53125ZM8.59375 12.7803L15.7715 20.0312H3.125V18.249L8.59375 12.7803ZM17.1875 14.3428L21.875 19.0303V20.0312H17.9932L14.7461 16.7598L17.1875 14.3428Z" fill="black"/>
</svg>
