<svg width="26" height="26" viewBox="0 0 26 26" fill="none" xmlns="http://www.w3.org/2000/svg">
<path d="M11.4375 3.625C11.0286 3.625 10.6105 3.76843 10.3145 4.06445C10.0184 4.36047 9.875 4.77856 9.875 5.1875V5.96875H4.40625V7.53125H5.26074L6.75 21.667L6.82324 22.375H19.1768L19.25 21.667L20.7393 7.53125H21.5938V5.96875H16.125V5.1875C16.125 4.77856 15.9816 4.36047 15.6855 4.06445C15.3895 3.76843 14.9714 3.625 14.5625 3.625H11.4375ZM11.4375 5.1875H14.5625V5.96875H11.4375V5.1875ZM6.84766 7.53125H19.1523L17.7607 20.8125H8.23926L6.84766 7.53125ZM9.875 9.875V18.4688H11.4375V9.875H9.875ZM12.2188 9.875V18.4688H13.7812V9.875H12.2188ZM14.5625 9.875V18.4688H16.125V9.875H14.5625Z" fill="black"/>
</svg>
